<svg width="20" height="19" viewBox="0 0 20 19" fill="none" xmlns="http://www.w3.org/2000/svg">
<path d="M8 12C7.44772 12 7 12.4477 7 13C7 13.5523 7.44772 14 8 14H12C12.5523 14 13 13.5523 13 13C13 12.4477 12.5523 12 12 12H8Z" fill="#6D6D6D"/>
<path fill-rule="evenodd" clip-rule="evenodd" d="M6 1C6 0.447715 5.55228 0 5 0C4.44772 0 4 0.447715 4 1V2H3C1.34315 2 0 3.34315 0 5V16C0 17.6569 1.34315 19 3 19H17C18.6569 19 20 17.6569 20 16V5C20 3.34315 18.6569 2 17 2H16V1C16 0.447715 15.5523 0 15 0C14.4477 0 14 0.447715 14 1V2H6V1ZM2 16V9H18V16C18 16.5523 17.5523 17 17 17H3C2.44772 17 2 16.5523 2 16ZM2 7H18V5C18 4.44772 17.5523 4 17 4H16C16 4.55228 15.5523 5 15 5C14.4477 5 14 4.55228 14 4H6C6 4.55228 5.55228 5 5 5C4.44772 5 4 4.55228 4 4H3C2.44772 4 2 4.44772 2 5V7Z" fill="#6D6D6D"/>
</svg>
