<svg width="116" height="116" viewBox="0 0 116 116" fill="none" xmlns="http://www.w3.org/2000/svg">
<path fill-rule="evenodd" clip-rule="evenodd" d="M64.1454 21.8096C50.7885 21.8096 39.3113 29.8122 34.2281 41.2731C21.9008 44.225 12.7393 55.3104 12.7393 68.5424C12.7393 84.0283 25.2931 96.5821 40.7789 96.5821H84.2764C96.278 96.5821 106.205 87.0601 106.205 75.0733C106.205 67.7469 102.478 61.3252 96.8583 57.456L96.8583 54.5225C96.8583 36.4557 82.2122 21.8096 64.1454 21.8096ZM42.0499 46.8979C45.2126 37.7306 53.9173 31.1561 64.1454 31.1561C77.0503 31.1561 87.5118 41.6176 87.5118 54.5225L87.5117 60.1063C87.5117 61.871 88.5058 63.4852 90.0816 64.2795C94.1596 66.3349 96.8583 70.4329 96.8583 75.0733C96.8583 81.6825 91.3344 87.2355 84.2764 87.2355H40.7789C30.455 87.2355 22.0858 78.8663 22.0858 68.5424C22.0858 59.0871 29.1103 51.2647 38.2236 50.0219C38.6594 49.9625 39.0847 49.8418 39.4868 49.6635L39.5268 49.6457C40.7128 49.1197 41.6267 48.1244 42.0499 46.8979Z" fill="#BFBFBF" fill-opacity="0.48"/>
<path d="M58.5875 73.0695V49.7031M58.5875 49.7031L46.9043 60.3242M58.5875 49.7031L70.2707 60.3242" stroke="#BFBFBF" stroke-opacity="0.48" stroke-width="7.00983" stroke-linecap="round" stroke-linejoin="round"/>
</svg>
