<svg xmlns="http://www.w3.org/2000/svg" width="182" height="182" viewBox="0 0 182 182" fill="none">
<path d="M154.867 139.55C159.604 143.151 160.567 149.964 156.432 154.243C144.23 166.867 128.576 175.751 111.313 179.704C94.0502 183.657 76.0897 182.471 59.6107 176.415C54.025 174.362 51.9273 167.809 54.6255 162.505L55.8896 160.02C58.5878 154.716 65.0623 152.696 70.7315 154.506C82.0423 158.116 94.18 158.659 105.88 155.98C117.58 153.3 128.272 147.529 136.885 139.357C141.202 135.261 147.91 134.261 152.647 137.862L154.867 139.55Z" fill="#ECECEC"/>
<path d="M50.5868 160.302C47.5891 165.443 40.944 167.229 36.1935 163.645C29.1506 158.331 22.9024 152.01 17.6573 144.869C10.2807 134.826 5.0455 123.374 2.27599 111.225C-0.493521 99.0755 -0.738267 86.4868 1.55692 74.2389C3.18892 65.53 6.08038 57.1253 10.1247 49.2845C12.8526 43.9957 19.6151 42.7251 24.5446 46.0588L26.8542 47.6206C31.7837 50.9543 32.9866 57.6287 30.4898 63.0305C28.1829 68.0211 26.4966 73.2906 25.4788 78.7217C23.7975 87.6938 23.9768 96.9157 26.0056 105.816C28.0343 114.716 31.8694 123.104 37.2731 130.461C40.544 134.915 44.3475 138.933 48.5893 142.431C53.1806 146.217 54.9891 152.753 51.9913 157.894L50.5868 160.302Z" fill="#DAFB58"/>
<path d="M28.2849 40.9714C23.6329 37.2604 22.829 30.4266 27.0636 26.2455C37.4605 15.9799 50.2179 8.32964 64.2858 4.00947C81.8008 -1.36926 100.532 -1.33556 118.027 4.10616C135.523 9.54787 150.968 20.1441 162.342 34.5084C171.478 46.0457 177.645 59.5823 180.385 73.9339C181.501 79.7793 176.963 84.9515 171.027 85.3692L168.246 85.5649C162.31 85.9826 157.245 81.4718 155.878 75.6802C153.642 66.2153 149.353 57.3097 143.261 49.6173C134.929 39.0948 123.615 31.3325 110.799 27.3462C97.9823 23.3599 84.2612 23.3352 71.4306 27.2754C62.0509 30.1558 53.4666 35.0571 46.2574 41.5845C41.8461 45.5786 35.1166 46.4211 30.4645 42.7101L28.2849 40.9714Z" fill="#212121"/>
<path d="M171.225 91C177.176 91 182.066 95.841 181.363 101.75C180.111 112.275 177.029 122.502 172.258 131.966C169.579 137.28 162.828 138.613 157.868 135.325L155.544 133.785C150.584 130.497 149.32 123.833 151.766 118.409C154.164 113.093 155.854 107.484 156.793 101.728C157.751 95.8551 162.486 91 168.437 91H171.225Z" fill="#6179FB"/>
</svg>