<svg width="49" height="48" viewBox="0 0 49 48" fill="none" xmlns="http://www.w3.org/2000/svg">
<path fill-rule="evenodd" clip-rule="evenodd" d="M48.4028 24C48.4028 28.8812 46.9329 33.422 44.408 37.2112L10.8679 3.9603C14.69 1.4572 19.2704 0 24.1941 0C37.5642 0 48.4028 10.7452 48.4028 24ZM7.67693 6.4537L41.8929 40.3748C40.5319 41.8198 38.9931 43.0982 37.311 44.1752L3.84332 10.9963C4.92983 9.32856 6.21922 7.80292 7.67693 6.4537ZM23.3438 47.9854L0 24.843C0.438184 37.4276 10.6497 47.551 23.3438 47.9854ZM28.6546 47.5934C30.3655 47.2776 32.0131 46.7832 33.5772 46.1306L1.87092 14.6977C1.2127 16.2483 0.714066 17.8818 0.395393 19.5781L28.6546 47.5934Z" fill="#1A1A1A"/>
</svg>
