<svg xmlns="http://www.w3.org/2000/svg" width="200" height="45" viewBox="0 0 200 45" fill="none">
<mask id="mask0_129_1043" style="mask-type:luminance" maskUnits="userSpaceOnUse" x="0" y="0" width="200" height="43">
<path d="M199.721 0H0V42.4186H199.721V0Z" fill="white"/>
</mask>
<g mask="url(#mask0_129_1043)">
<path d="M53.8818 22.209V4.49658H60.4115C61.7411 4.49658 62.8055 4.6778 63.6049 5.04026C64.4123 5.39467 65.0415 5.94643 65.4926 6.69553C65.9518 7.43656 66.1812 8.21385 66.1812 9.02737C66.1812 9.78452 65.9794 10.4974 65.5758 11.166C65.1721 11.8344 64.5627 12.374 63.7475 12.785C64.8001 13.099 65.6074 13.6348 66.1694 14.3917C66.7392 15.1489 67.0242 16.0431 67.0242 17.074C67.0242 17.9037 66.85 18.6769 66.5018 19.3938C66.1614 20.1027 65.738 20.6504 65.2314 21.037C64.7249 21.4237 64.0877 21.7176 63.3201 21.9189C62.5603 22.1123 61.6263 22.209 60.5183 22.209H53.8818ZM56.1851 11.9392H59.9485C60.9693 11.9392 61.7015 11.8707 62.1447 11.7337C62.7303 11.5566 63.1697 11.2625 63.4625 10.8517C63.7633 10.441 63.9137 9.92542 63.9137 9.30526C63.9137 8.71727 63.7751 8.20176 63.4981 7.75875C63.2211 7.30768 62.8253 7.0016 62.3109 6.84051C61.7965 6.67135 60.9139 6.58678 59.6635 6.58678H56.1851V11.9392ZM56.1851 20.1188H60.5183C61.2623 20.1188 61.7845 20.0905 62.0853 20.0341C62.6157 19.9374 63.0589 19.7764 63.4149 19.5509C63.7711 19.3254 64.064 18.9991 64.2935 18.5723C64.5231 18.1373 64.6379 17.6378 64.6379 17.074C64.6379 16.4135 64.4716 15.8418 64.1392 15.3584C63.8067 14.867 63.3437 14.5247 62.7501 14.3315C62.1645 14.13 61.3177 14.0294 60.2095 14.0294H56.1851V20.1188ZM76.6999 9.37774H86.6486V22.209H84.5116V11.178H78.8367V22.209H76.6999V9.37774ZM89.8658 27.1263V9.37774H91.8128V11.0451C92.2718 10.3927 92.7902 9.90527 93.368 9.58316C93.9459 9.25291 94.6463 9.08778 95.4695 9.08778C96.5459 9.08778 97.4955 9.3697 98.3187 9.93355C99.1419 10.4974 99.7631 11.2948 100.183 12.3258C100.602 13.3488 100.812 14.4723 100.812 15.6966C100.812 17.0097 100.578 18.1937 100.111 19.2489C99.6523 20.2959 98.9795 21.1015 98.0931 21.6653C97.2147 22.221 96.2887 22.499 95.3151 22.499C94.6028 22.499 93.9617 22.3459 93.3918 22.0398C92.8298 21.7337 92.3668 21.3472 92.0028 20.8798V27.1263H89.8658ZM91.801 15.8658C91.801 17.5171 92.1294 18.7374 92.7864 19.5267C93.4432 20.316 94.2387 20.7107 95.1727 20.7107C96.1225 20.7107 96.9337 20.304 97.6063 19.4905C98.2871 18.669 98.6273 17.4003 98.6273 15.6846C98.6273 14.0496 98.2949 12.8253 97.6301 12.0117C96.9733 11.1982 96.1857 10.7913 95.2677 10.7913C94.3574 10.7913 93.5501 11.2263 92.8456 12.0962C92.1492 12.9582 91.801 14.2146 91.801 15.8658ZM102.605 15.7933C102.605 13.4172 103.254 11.6572 104.552 10.5134C105.636 9.56301 106.958 9.08778 108.517 9.08778C110.25 9.08778 111.667 9.66773 112.767 10.8275C113.867 11.9794 114.417 13.5743 114.417 15.6122C114.417 17.2633 114.172 18.5641 113.681 19.5147C113.198 20.4571 112.49 21.19 111.556 21.7136C110.63 22.2372 109.617 22.499 108.517 22.499C106.752 22.499 105.323 21.923 104.231 20.7712C103.147 19.6193 102.605 17.96 102.605 15.7933ZM104.801 15.7933C104.801 17.4365 105.153 18.669 105.857 19.4905C106.562 20.304 107.448 20.7107 108.517 20.7107C109.577 20.7107 110.46 20.2999 111.164 19.4784C111.869 18.6568 112.221 17.4044 112.221 15.7209C112.221 14.1341 111.865 12.934 111.152 12.1204C110.448 11.2987 109.569 10.888 108.517 10.888C107.448 10.888 106.562 11.2948 105.857 12.1084C105.153 12.9218 104.801 14.1501 104.801 15.7933ZM118.074 9.37774H126.859V20.4208H128.224V25.8457H126.467V22.209H116.542V25.8457H114.785V20.4208H115.913C117.417 18.3427 118.137 14.6616 118.074 9.37774ZM119.855 11.178C119.696 15.3423 119.063 18.4233 117.955 20.4208H124.734V11.178H119.855ZM138.814 20.6262C138.023 21.3109 137.259 21.7941 136.523 22.0761C135.795 22.358 135.011 22.499 134.172 22.499C132.787 22.499 131.723 22.1566 130.979 21.4719C130.235 20.7793 129.863 19.8973 129.863 18.8259C129.863 18.1978 130.001 17.6258 130.278 17.1102C130.563 16.5867 130.931 16.1678 131.382 15.8538C131.841 15.5397 132.356 15.302 132.926 15.141C133.345 15.0282 133.978 14.9195 134.825 14.8147C136.55 14.6053 137.821 14.3555 138.636 14.0657C138.644 13.7677 138.648 13.5784 138.648 13.4978C138.648 12.6118 138.446 11.9875 138.042 11.625C137.496 11.1336 136.685 10.888 135.609 10.888C134.603 10.888 133.859 11.0693 133.377 11.4316C132.902 11.7862 132.55 12.4184 132.32 13.3286L130.231 13.0386C130.421 12.1284 130.733 11.3954 131.168 10.8397C131.604 10.2759 132.233 9.845 133.056 9.54691C133.879 9.24082 134.833 9.08778 135.917 9.08778C136.994 9.08778 137.868 9.21666 138.541 9.47441C139.214 9.73217 139.709 10.0583 140.025 10.453C140.342 10.8397 140.563 11.3311 140.69 11.927C140.761 12.2977 140.797 12.9661 140.797 13.9327V16.8324C140.797 18.8542 140.84 20.1349 140.927 20.6745C141.022 21.2061 141.204 21.7176 141.473 22.209H139.242C139.02 21.7579 138.877 21.2303 138.814 20.6262ZM138.636 15.7691C137.86 16.0913 136.697 16.3653 135.146 16.5908C134.267 16.7196 133.646 16.8646 133.282 17.0258C132.918 17.1868 132.637 17.4245 132.439 17.7386C132.241 18.0447 132.142 18.387 132.142 18.7656C132.142 19.3455 132.356 19.8287 132.783 20.2155C133.218 20.602 133.852 20.7954 134.683 20.7954C135.506 20.7954 136.238 20.6142 136.879 20.2517C137.52 19.8811 137.991 19.3777 138.292 18.7414C138.521 18.2501 138.636 17.5251 138.636 16.5666V15.7691ZM144.109 9.37774H146.246V14.9234C146.927 14.9234 147.401 14.7905 147.671 14.5247C147.948 14.259 148.351 13.4858 148.882 12.2049C149.301 11.19 149.641 10.5216 149.903 10.1994C150.164 9.87717 150.464 9.65967 150.805 9.54691C151.145 9.43414 151.691 9.37774 152.443 9.37774H152.87V11.178L152.277 11.166C151.715 11.166 151.355 11.2505 151.197 11.4196C151.03 11.5969 150.777 12.1245 150.437 13.0024C150.112 13.8401 149.815 14.42 149.546 14.7422C149.277 15.0644 148.862 15.3584 148.3 15.6242C149.218 15.8739 150.12 16.7439 151.007 18.234L153.345 22.209H150.995L148.715 18.234C148.248 17.4365 147.841 16.913 147.493 16.6633C147.144 16.4056 146.729 16.2767 146.246 16.2767V22.209H144.109V9.37774ZM154.829 9.37774H156.966V20.4086H161.834V9.37774H163.971V20.4086H168.85V9.37774H170.975V22.209H154.829V9.37774ZM182.906 18.0769L185.115 18.3547C184.766 19.6677 184.122 20.6867 183.18 21.4115C182.237 22.1365 181.036 22.499 179.57 22.499C177.727 22.499 176.263 21.923 175.178 20.7712C174.101 19.6114 173.563 17.9883 173.563 15.902C173.563 13.7434 174.11 12.0681 175.202 10.876C176.294 9.68383 177.71 9.08778 179.452 9.08778C181.138 9.08778 182.515 9.67176 183.583 10.8397C184.651 12.0076 185.186 13.6508 185.186 15.7691C185.186 15.8981 185.183 16.0913 185.174 16.3492H175.772C175.852 17.7587 176.242 18.8381 176.947 19.5871C177.651 20.3362 178.53 20.7107 179.582 20.7107C180.365 20.7107 181.036 20.5014 181.59 20.0826C182.144 19.6637 182.583 18.995 182.906 18.0769ZM175.89 14.5611H182.93C182.835 13.4817 182.566 12.6722 182.123 12.1324C181.442 11.2948 180.56 10.876 179.476 10.876C178.495 10.876 177.666 11.2102 176.994 11.8788C176.329 12.5472 175.961 13.4414 175.89 14.5611ZM187.821 9.37774H189.959V14.718H195.883V9.37774H198.021V22.209H195.883V16.5183H189.959V22.209H187.821V9.37774Z" fill="#1A1A1A"/>
<path fill-rule="evenodd" clip-rule="evenodd" d="M41.681 21.2093C41.681 25.5229 40.4157 29.5357 38.242 32.8843L9.36848 3.4998C12.6589 1.28775 16.6019 0 20.8406 0C32.3504 0 41.681 9.49572 41.681 21.2093ZM6.6215 5.70327L36.0768 35.6801C34.9053 36.957 33.5805 38.0868 32.1324 39.0385L3.32128 9.71764C4.25662 8.24384 5.36661 6.8956 6.6215 5.70327ZM20.1086 42.4057L0.0126953 21.9543C0.389913 33.0756 9.18062 42.0218 20.1086 42.4057ZM24.6804 42.0593C26.1533 41.7802 27.5717 41.3433 28.9182 40.7666L1.62331 12.9887C1.05667 14.359 0.62741 15.8026 0.353075 17.3016L24.6804 42.0593Z" fill="#1A1A1A"/>
</g>
<path d="M54.791 40.8425V30.5776H55.8429V39.0828L62.2982 30.5776H63.2636V40.8425H62.2117V32.352L55.7564 40.8425H54.791ZM68.6702 40.8425V31.2229L68.9583 31.5161H65.1255V30.5776H73.2667V31.5161H69.4483L69.722 31.2229V40.8425H68.6702ZM73.8382 37.3231V36.414H77.6134V37.3231H73.8382ZM83.2416 40.9159C82.4924 40.9159 81.8199 40.7497 81.2244 40.4173C80.6384 40.0751 80.1773 39.6108 79.8411 39.0242C79.5049 38.4278 79.3368 37.7484 79.3368 36.9859C79.3368 36.2136 79.5049 35.5341 79.8411 34.9476C80.1773 34.361 80.6384 33.9015 81.2244 33.5691C81.8199 33.2367 82.4924 33.0705 83.2416 33.0705C83.8852 33.0705 84.4664 33.1976 84.9851 33.4518C85.5039 33.706 85.9121 34.0873 86.2099 34.5956L85.4462 35.1235C85.1869 34.7325 84.8651 34.4441 84.4808 34.2583C84.0966 34.0726 83.6787 33.9797 83.2272 33.9797C82.6893 33.9797 82.2042 34.1068 81.7719 34.361C81.3396 34.6054 80.9986 34.9524 80.7489 35.4021C80.4991 35.8518 80.3742 36.3798 80.3742 36.9859C80.3742 37.592 80.4991 38.1199 80.7489 38.5696C80.9986 39.0193 81.3396 39.3712 81.7719 39.6254C82.2042 39.8698 82.6893 39.992 83.2272 39.992C83.6787 39.992 84.0966 39.8992 84.4808 39.7134C84.8651 39.5277 85.1869 39.2442 85.4462 38.8629L86.2099 39.3908C85.9121 39.8894 85.5039 40.2706 84.9851 40.5346C84.4664 40.7888 83.8852 40.9159 83.2416 40.9159ZM89.4909 40.8425V33.7744L89.7503 34.053H86.6235V33.1439H93.3814V34.053H90.2546L90.514 33.7744V40.8425H89.4909ZM94.9903 43.7607C94.6349 43.7607 94.2938 43.7021 93.9672 43.5847C93.6502 43.4674 93.3765 43.2915 93.1459 43.0568L93.6214 42.2796C93.8135 42.4654 94.0201 42.6071 94.241 42.7049C94.4716 42.8124 94.7261 42.8662 95.0047 42.8662C95.3409 42.8662 95.6291 42.7684 95.8692 42.5729C96.119 42.3872 96.3544 42.0548 96.5753 41.5758L97.0652 40.4466L97.1805 40.2853L100.293 33.1439H101.301L97.5119 41.7664C97.3006 42.265 97.0652 42.6609 96.8058 42.9542C96.5561 43.2475 96.2823 43.4528 95.9845 43.5701C95.6867 43.6972 95.3553 43.7607 94.9903 43.7607ZM97.0076 41.0625L93.5206 33.1439H94.5868L97.6704 40.212L97.0076 41.0625ZM107.759 40.344V34.053H104.114L104.027 35.7687C104.008 36.2869 103.974 36.7952 103.926 37.2938C103.888 37.7924 103.816 38.2519 103.71 38.6723C103.614 39.0828 103.475 39.4201 103.292 39.6841C103.11 39.9383 102.874 40.0849 102.586 40.124L101.563 39.9334C101.861 39.9431 102.106 39.8356 102.298 39.6108C102.49 39.3761 102.639 39.0584 102.745 38.6576C102.85 38.2568 102.927 37.8022 102.975 37.2938C103.023 36.7757 103.062 36.2478 103.091 35.7101L103.191 33.1439H108.782V40.344H107.759ZM101.246 42.7049V39.9334H109.964V42.7049H108.998V40.8425H102.212V42.7049H101.246ZM111.958 40.8425V33.1439H112.98V39.2588L118.038 33.1439H118.945V40.8425H117.923V34.7129L112.88 40.8425H111.958ZM126.762 40.8425V38.071L126.95 38.291H124.385C123.415 38.291 122.656 38.0759 122.109 37.6458C121.561 37.2156 121.287 36.5899 121.287 35.7687C121.287 34.8889 121.58 34.2339 122.166 33.8038C122.752 33.3638 123.534 33.1439 124.514 33.1439H127.699V40.8425H126.762ZM121.229 40.8425L123.304 37.8804H124.37L122.339 40.8425H121.229ZM126.762 37.7631V33.7451L126.95 34.053H124.543C123.842 34.053 123.294 34.1899 122.9 34.4636C122.516 34.7374 122.324 35.1822 122.324 35.7981C122.324 36.9419 123.04 37.5138 124.472 37.5138H126.95L126.762 37.7631Z" fill="black" fill-opacity="0.7"/>
</svg>