<svg width="22" height="25" viewBox="0 0 22 25" fill="none" xmlns="http://www.w3.org/2000/svg">
<path fill-rule="evenodd" clip-rule="evenodd" d="M10.6163 3.7078C10.2957 5.87016 9.89283 9.24134 12.0723 13.0163C14.2518 16.7913 17.3727 18.128 19.4057 18.9315C19.4759 18.9593 19.5461 18.9868 19.6158 19.0142C20.0364 19.1796 20.4413 19.3388 20.7556 19.495C20.9421 19.5876 21.1408 19.7001 21.313 19.8407C21.4823 19.979 21.6899 20.1961 21.7879 20.5141C22.0106 21.2366 21.5163 21.7851 21.2134 22.0606C20.8533 22.3881 20.309 22.7427 19.6061 23.1485C13.6075 26.6118 5.93715 24.5566 2.47386 18.558C-0.989423 12.5594 1.06585 4.88903 7.06443 1.42574C7.76734 1.01992 8.34666 0.725838 8.81021 0.577777C9.2003 0.453183 9.92253 0.299364 10.4368 0.853441C10.6632 1.09733 10.7475 1.38573 10.7825 1.60146C10.8182 1.8209 10.8163 2.04923 10.8033 2.25705C10.7814 2.60734 10.7168 3.03759 10.6497 3.48456C10.6386 3.55861 10.6274 3.63312 10.6163 3.7078ZM9.03794 2.3636C8.77326 2.48066 8.41607 2.6661 7.93943 2.94129C2.77786 5.92133 1.00937 12.5214 3.98941 17.683C6.96944 22.8446 13.5695 24.613 18.7311 21.633C19.2077 21.3578 19.5469 21.1412 19.7806 20.9705C19.5688 20.8767 19.3078 20.7738 18.985 20.6467C18.9139 20.6187 18.8397 20.5895 18.7625 20.559C16.6401 19.7202 13.044 18.1992 10.5568 13.8913C8.06958 9.58338 8.55049 5.70858 8.88523 3.45111C8.89741 3.36895 8.90919 3.29018 8.9205 3.21458C8.97181 2.8715 9.01332 2.59397 9.03794 2.3636ZM9.50458 2.20618C9.50405 2.20683 9.49611 2.20814 9.48232 2.20821C9.49821 2.20558 9.5051 2.20554 9.50458 2.20618ZM20.1374 20.6633C20.1444 20.6515 20.1495 20.6452 20.1503 20.6451C20.1511 20.645 20.1476 20.6509 20.1374 20.6633Z" fill="#0E0E0E"/>
</svg>
