<svg width="20" height="20" viewBox="0 0 20 20" fill="none" xmlns="http://www.w3.org/2000/svg">
<path fill-rule="evenodd" clip-rule="evenodd" d="M19.6 9.9999C19.6 15.3018 15.302 19.5999 10 19.5999C4.69809 19.5999 0.400024 15.3018 0.400024 9.9999C0.400024 4.69797 4.69809 0.399902 10 0.399902C15.302 0.399902 19.6 4.69797 19.6 9.9999ZM13 7C13 8.65685 11.6569 10 10 10C8.34315 10 7 8.65685 7 7C7 5.34315 8.34315 4 10 4C11.6569 4 13 5.34315 13 7ZM10 12.4C7.6496 12.4 5.56224 13.5262 4.24814 15.2685C5.6741 16.8244 7.72312 17.8 10 17.8C12.2769 17.8 14.3259 16.8244 15.7519 15.2685C14.4378 13.5262 12.3504 12.4 10 12.4Z" fill="#6D6D6D"/>
</svg>
